<svg viewBox="-28.78 -20 110 110" version="1.1" xmlns="http://www.w3.org/2000/svg" width="250" height="250">
    <path
        d="M 22.05625,69.955138 C 15.497551,69.48284 9.0151143,67.833549 5.0395135,65.625562 2.7750115,64.367968 1.0497791,62.822377 0.37278677,61.444884 L -0.03000135,60.625289 V 34.917359 9.2093993 L 0.28873578,8.5629028 C 1.7130782,5.6739186 6.2588084,3.0694328 12.604383,1.5067413 14.758408,0.97624428 17.868055,0.44794717 20.404939,0.18154862 22.995405,-0.09054989 29.861701,-0.04915012 32.445731,0.25454823 39.313579,1.0606438 45.15765,2.8653339 48.75913,5.2922207 c 1.388899,0.9358949 2.814082,2.4333867 3.296887,3.4641811 l 0.413979,0.8837951 -0.03543,25.6301601 -0.03543,25.63033 -0.33227,0.674397 c -0.182746,0.370898 -0.734768,1.100694 -1.226712,1.621591 -2.994696,3.171482 -9.418266,5.51757 -17.843894,6.517164 -1.717325,0.203799 -9.178004,0.368598 -10.939912,0.241699 z m 12.086657,-22.02827 c -0.02522,-0.0657 -1.005689,-0.938305 -2.17881,-1.939209 -1.17312,-1.000905 -2.183484,-1.86686 -2.245253,-1.92435 -0.06176,-0.0575 0.154959,-0.261058 0.481634,-0.452367 0.326665,-0.191309 0.952548,-0.723496 1.39084,-1.182644 1.281735,-1.342712 1.886478,-3.001293 1.886478,-5.173852 0,-2.138788 -0.652249,-3.864478 -1.958597,-5.181771 -1.316599,-1.327793 -2.828266,-1.89829 -5.029707,-1.89829 -3.39334,0 -5.999461,1.978089 -6.831262,5.185072 -0.286136,1.103094 -0.284595,3.332092 0.003,4.310206 0.750132,2.551346 2.793131,4.404316 5.335761,4.839434 0.860429,0.147239 0.976991,0.210709 1.563607,0.851435 0.348625,0.380778 1.064035,1.140844 1.589801,1.689031 l 0.955932,0.996695 h 2.541228 c 1.397677,0 2.520589,-0.0537 2.495365,-0.11939 z M 25.427979,40.818427 C 24.8162,40.499749 24.584917,40.25244 24.236041,39.543904 c -0.26945,-0.547237 -0.315524,-0.858505 -0.318547,-2.151958 -0.003,-1.314293 0.03884,-1.598292 0.320178,-2.168988 0.460294,-0.933895 1.094605,-1.375993 2.07584,-1.446893 1.365857,-0.099 2.154246,0.570697 2.567454,2.180089 0.506609,1.973199 -0.05045,4.071047 -1.265929,4.767264 -0.637685,0.365268 -1.588901,0.406587 -2.187058,0.095 z m -11.264003,3.66267 C 16.828333,43.9763 18.3408,42.428308 18.3408,40.20617 c 0,-1.971359 -0.976421,-3.120023 -3.675141,-4.323616 -1.544869,-0.688996 -2.104438,-1.121494 -2.104438,-1.626791 0,-0.418798 0.531032,-0.877695 1.149238,-0.992995 0.603601,-0.112599 2.204494,0.165199 3.149865,0.546697 l 0.792433,0.319799 v -1.752391 -1.75249 l -0.860058,-0.190599 c -0.531543,-0.1178 -1.648479,-0.188499 -2.924188,-0.184899 -1.807021,0 -2.160892,0.044 -2.840918,0.313798 -1.9863636,0.787796 -2.9289518,2.129788 -2.9138773,4.148477 0.014114,1.88979 1.0120552,3.068624 3.4956383,4.129098 1.465402,0.625716 2.052738,1.102174 2.052738,1.665211 0,1.196493 -1.995543,1.343742 -4.1083287,0.303148 C 8.9751557,40.523639 8.4553148,40.26725 8.3985501,40.23886 c -0.056755,-0.0284 -0.1032094,0.790226 -0.1032094,1.81916 0,1.86238 0.002,1.87136 0.3395171,1.999729 1.2710148,0.482778 4.0801912,0.697866 5.5291182,0.423348 z m 30.46015,-1.727651 v -1.580971 h -2.40816 -2.408151 v -5.43032 -5.430271 H 37.67487 35.541935 v 7.011262 7.011272 h 4.541095 4.541096 z M 29.762356,15.048568 c 4.238554,-0.293699 7.415745,-0.848196 10.211619,-1.782091 2.785324,-0.930394 4.4307,-2.056188 4.798754,-3.2833819 C 44.914526,9.5101976 44.904316,9.3307986 44.706165,8.8123014 43.817559,6.4878141 38.853586,4.7019239 31.268287,3.9778278 28.02362,3.6680295 22.122764,3.768429 19.029043,4.1859267 14.308455,4.8231232 10.477473,6.0067168 8.774062,7.3542094 c -3.4458303,2.7259856 0.1981209,5.7241686 8.672326,7.1353616 3.674381,0.611896 8.434868,0.827995 12.316008,0.558997 z"
        fill="#00bcf2" style="stroke-width:1" opacity="0" transform-origin="bottom">
        <animate 
        attributeName="opacity"
        dur="12s"
        values="  0;   0;  1;  1;   0;0"
        keyTimes="0;0.65;0.7;0.9;0.95;1"
        calcMode="spline"
        keySplines="
        .48,.48,.1,.91;
        .48,.48,.1,.91;
        .48,.48,.1,.91;
        .48,.48,.1,.91;
        .48,.48,.1,.91"
        begin="logoAnim.end"/>
        <animateTransform
        attributeName="transform"
        type="scale"
        dur="12s"
        values="0 0;0.5 0.8;1 1;1 1;0.9 0.8;1 1"
        keyTimes="0;0.65;0.7;0.9;0.95;1"
        calcMode="spline"
        keySplines="
        .48,.48,.1,.91;
        .48,.48,.1,.91;
        .48,.48,.1,.91;
        .48,.48,.1,.91;
        .48,.48,.1,.91"
        begin="logoAnim.end"/>
    </path>
    
    <path style="fill:#3d79aa;fill-opacity:1;stroke-width:0.626267" opacity="0" transform-origin="center"
        d="M 25.803196,5.7630493e-4 C 22.9168,0.01384148 20.160356,0.25732063 17.73497,0.68180401 10.590085,1.9302826 9.2928503,4.5434553 9.2928497,9.3625908 V 15.727204 H 26.17709 v 2.121538 H 9.2928497 2.95634 c -4.9070303,0 -9.2037662,2.917191 -10.5477303,8.466687 -1.5502456,6.36101 -1.6190074,10.330384 0,16.972301 1.2001921,4.943986 4.0664134,8.466686 8.9734422,8.466687 h 5.8051874 v -7.62975 c 0,-5.512044 4.8218207,-10.374124 10.5477307,-10.374125 h 16.864561 c 4.694497,0 8.442122,-3.823074 8.44212,-8.48615 V 9.3625908 c 0,-4.5257426 -3.860141,-7.9254587 -8.44212,-8.68078679 C 31.699071,0.2042593 28.689593,-0.01268906 25.803196,5.7630493e-4 Z M 16.672325,5.1195158 c 1.744026,0 3.168255,1.4316809 3.168255,3.192038 -10e-7,1.7541182 -1.424229,3.1725752 -3.168255,3.1725752 -1.750278,-10e-7 -3.168255,-1.418458 -3.168255,-3.1725752 0,-1.7603565 1.417977,-3.192038 3.168255,-3.192038 z">
        <animate 
        attributeName="opacity"
        dur="12s"
        values="  0;   0;  1;  1;   0;0"
        keyTimes="0;0.35;0.4;0.6;0.65;1"
        calcMode="spline"
        keySplines="
        .48,.48,.1,.91;
        .48,.48,.1,.91;
        .48,.48,.1,.91;
        .48,.48,.1,.91;
        .48,.48,.1,.91"
        begin="logoAnim.end"/>
        <animateTransform
        attributeName="transform"
        type="rotate"
        dur="12s"
        values="180;180;0;0;0;0"
        keyTimes="0;0.35;0.4;0.6;0.65;1"
        calcMode="spline"
        keySplines="
        .48,.48,.1,.91;
        .48,.48,.1,.91;
        .48,.48,.1,.91;
        .48,.48,.1,.91;
        .48,.48,.1,.91"
        begin="logoAnim.end"/>
        <animateTransform
        attributeName="transform"
        type="translate"
        dur="12s"
        values="20 0;20 0;0 0;0 0;0 40;0 0"
        keyTimes="0;0.35;0.4;0.603;0.6503;1"
        calcMode="spline"
        keySplines="
        .48,.48,.1,.91;
        .48,.48,.1,.91;
        .48,.48,.1,.91;
        .48,.48,.1,.91;
        .48,.48,.1,.91"
        additive="sum"
        begin="logoAnim.end"/>
    </path>
    <path style="fill:#ffe05e;fill-opacity:1;stroke-width:0.626267" opacity="0" transform-origin="center"
        d="m 45.147262,17.848742 v 7.41565 c 0,5.749253 -4.928086,10.588224 -10.547731,10.588224 H 17.73497 c -4.619486,0 -8.4421197,3.91047 -8.4421203,8.486151 v 15.901798 c 0,4.525746 3.9789113,7.187738 8.4421203,8.486154 5.344602,1.554357 10.469795,1.835269 16.864561,0 4.250676,-1.217266 8.442122,-3.66702 8.44212,-8.486154 V 53.875954 H 26.17709 v -2.121537 h 16.864561 8.442123 c 4.907032,0 6.735592,-3.385372 8.442114,-8.466687 1.762781,-5.231135 1.687776,-10.261719 0,-16.972301 -1.212693,-4.83162 -3.528842,-8.466687 -8.442114,-8.466687 z M 35.662176,58.11903 c 1.750279,2e-6 3.168255,1.418459 3.168255,3.172572 -2e-6,1.760358 -1.417977,3.192041 -3.168255,3.192041 -1.744028,0 -3.168255,-1.431683 -3.168255,-3.192041 10e-7,-1.754113 1.424225,-3.172572 3.168255,-3.172572 z">
        <animate 
        attributeName="opacity"
        dur="12s"
        values="  0;   0;  1;  1;0   ;0"
        keyTimes="0;0.35;0.4;0.6;0.65;1"
        calcMode="spline"
        keySplines="
        .48,.48,.1,.91;
        .48,.48,.1,.91;
        .48,.48,.1,.91;
        .48,.48,.1,.91;
        .48,.48,.1,.91"
        begin="logoAnim.end"/>
        <animateTransform
        attributeName="transform"
        type="rotate"
        dur="12s"
        values="180;180;0;0;0;0"
        keyTimes="0;0.35;0.4;0.6;0.65;1"
        calcMode="spline"
        keySplines="
        .48,.48,.1,.91;
        .48,.48,.1,.91;
        .48,.48,.1,.91;
        .48,.48,.1,.91;
        .48,.48,.1,.91"
        begin="logoAnim.end"/>
        <animateTransform
        attributeName="transform"
        type="translate"
        dur="12s"
        values="20 0;20 0;0 0;0 0;0 50;0 0"
        keyTimes="0;0.35;0.4;0.6;0.65;1"
        calcMode="spline"
        keySplines="
        .48,.48,.1,.91;
        .48,.48,.1,.91;
        .48,.48,.1,.91;
        .48,.48,.1,.91;
        .48,.48,.1,.91"
        additive="sum"
        begin="logoAnim.end"/>
    </path>
    
    <rect width="70" height="70" fill="#f7df1e" rx="7" x="-8.7799997" opacity="0"
        style="stroke-width:0.111111">
        <animate 
        attributeName="opacity"
        dur="12s"
        values="  0;  0;  1;  1;0  ;0"
        keyTimes="0;0.0;0.1;0.3;0.35;1"
        calcMode="spline"
        keySplines="
        .48,.48,.1,.91;
        .48,.48,.1,.91;
        .48,.48,.1,.91;
        .48,.48,.1,.91;
        .48,.48,.1,.91"
        begin="logoAnim.end"/>
        <animate 
        attributeName="rx"
        dur="12s"
        values="  30;  30;  7;  7;7  ;7"
        keyTimes="0;0.0;0.1;0.3;0.35;1"
        calcMode="spline"
        keySplines="
        .48,.48,.1,.91;
        .48,.48,.1,.91;
        .48,.48,.1,.91;
        .48,.48,.1,.91;
        .48,.48,.1,.91"
        begin="logoAnim.end"/>
        <animateTransform
        attributeName="transform"
        type="translate"
        dur="12s"
        values="0 0;0 50;0 0;0 0;0 0;0 0"
        keyTimes="0;0.00;0.1;0.3;0.35;1"
        calcMode="spline"
        keySplines="
        .48,.48,.1,.91;
        .48,.48,.1,.91;
        .48,.48,.1,.91;
        .48,.48,.1,.91;
        .48,.48,.1,.91"
        begin="logoAnim.end"/>
    </rect>
    <path style="stroke-width:0.111111" transform-origin="bottom right" opacity="0"
        d="m 38.242222,54.687781 c 1.41,2.302222 3.244444,3.994445 6.488889,3.994445 2.725555,0 4.466666,-1.362223 4.466666,-3.244445 0,-2.255555 -1.788889,-3.054444 -4.788889,-4.366666 l -1.644444,-0.705556 c -4.746667,-2.022222 -7.9,-4.555555 -7.9,-9.911111 0,-4.933333 3.758889,-8.688889 9.633333,-8.688889 4.182222,0 7.188889,1.455556 9.355556,5.266667 l -5.122222,3.288889 c -1.127778,-2.022222 -2.344445,-2.818889 -4.233334,-2.818889 -1.926666,0 -3.147778,1.222222 -3.147778,2.818889 0,1.973333 1.222223,2.772222 4.044445,3.994444 l 1.644444,0.704445 c 5.588889,2.396666 8.744445,4.84 8.744445,10.333333 0,5.922222 -4.652222,9.166666 -10.9,9.166666 -6.108889,0 -10.055556,-2.911111 -11.986667,-6.726666 z m -23.236667,0.57 c 1.033334,1.833334 1.973334,3.383334 4.233334,3.383334 2.161111,0 3.524444,-0.845556 3.524444,-4.133334 V 32.141115 h 6.577778 V 54.59667 c 0,6.811111 -3.993334,9.911111 -9.822222,9.911111 -5.266667,0 -8.316667,-2.725555 -9.8677781,-6.008333 z">
        <animate 
        attributeName="opacity"
        dur="12s"
        values="  0;   0;  1;  1;0  ;0"
        keyTimes="0;0;0.1;0.3;0.35;1"
        calcMode="spline"
        keySplines="
        .48,.48,.1,.91;
        .48,.48,.1,.91;
        .48,.48,.1,.91;
        .48,.48,.1,.91;
        .48,.48,.1,.91"
        begin="logoAnim.end"/>
        <animateTransform
        attributeName="transform"
        type="scale"
        dur="12s"
        values="0;0.5;1;1;0.9;1"
        keyTimes="0;0;0.1;0.3;0.35;1"
        calcMode="spline"
        keySplines="
        .48,.48,.1,.91;
        .48,.48,.1,.91;
        .48,.48,.1,.91;
        .48,.48,.1,.91;
        .48,.48,.1,.91"
        begin="logoAnim.end"/>
    </path>

    <g transform="scale(0.13) translate(-200 -130)" opacity="0">
        <animate
            id="logoAnim"
            attributeName="opacity"
            dur="5s"
            values="0;1;1;1;1;1;0"
            keySplines="
            .48,.48,.1,.91;
            .48,.48,.1,.91;
            .48,.48,.1,.91;
            .48,.48,.1,.91;
            .48,.48,.1,.91;
            .48,.48,.1,.91"
            calcMode="spline"
            begin="animLoop.begin"/>

        <mask id="maskCOD3">
          <g style="fill:#fff;stroke:none;stroke-opacity:0.442396;font-weight:bold;font-size:64px;font-family:Monospace;white-space:pre;fill:#fff;stroke:none;stroke-width:1;stroke-linejoin:bevel;stroke-opacity:0.442396">
            <path d="m 106.13477,69.056641 c -2.54525,0.02998 -5.09471,1.344615 -6.314345,3.6296 -1.548845,2.80959 -1.6258,6.180647 -1.230581,9.292275 0.371494,2.780085 1.881996,5.652735 4.614396,6.72056 2.38252,0.923565 5.17515,0.827024 7.46373,-0.326029 0.57023,-0.690178 0.19562,-1.654141 0.30273,-2.478516 0,-0.689453 0,-1.378906 0,-2.068359 -0.55403,-0.373965 -1.04887,-0.472639 -1.47844,0.104266 -1.38997,1.233125 -3.89301,1.547639 -5.12553,-0.06192 -1.22874,-1.793305 -1.16737,-4.108338 -1.04029,-6.190451 0.15302,-1.620043 0.69349,-3.641474 2.45926,-4.148284 1.57417,-0.472932 3.19124,0.323516 4.31,1.407719 0.70791,-0.166182 1.05753,-0.56243 0.875,-1.300391 -0.036,-1.079103 0.0716,-2.199504 -0.0531,-3.253081 -0.41167,-0.763943 -1.43021,-0.840308 -2.18516,-1.104731 -0.85143,-0.188927 -1.72662,-0.258437 -2.59765,-0.222656 z" />
            <path d="m 119.57422,69.056641 c -2.18733,0.02132 -4.2207,1.425157 -5.07566,3.42843 -1.27976,2.840649 -1.27541,6.063312 -1.06501,9.114245 0.24328,2.554837 0.98167,5.45135 3.31059,6.888965 2.07614,1.190718 4.90318,1.13498 6.86074,-0.277474 2.22516,-1.704411 2.78619,-4.693393 2.95826,-7.330977 0.128,-3.018239 0.0846,-6.245295 -1.40959,-8.959672 -1.08888,-2.018855 -3.33638,-3.03389 -5.57933,-2.863517 z m 0.60937,4.167968 c 1.15845,0.304096 1.32395,1.721818 1.50561,2.723548 0.11197,0.788329 0.15669,1.584573 0.17994,2.379968 -0.58073,-1.469365 -2.84116,-1.640195 -3.64258,-0.28125 -0.31791,0.675764 -0.0535,-0.755842 -0.0873,-1.026421 0.16005,-1.258026 0.16109,-2.808644 1.24157,-3.666938 0.2436,-0.134154 0.52989,-0.168896 0.80273,-0.128907 z m 1.66016,7.527344 c -0.14122,1.402456 -0.10127,3.030688 -1.10937,4.134766 -0.78137,0.66784 -1.90238,0.0055 -2.10436,-0.896056 -0.45291,-1.258651 -0.50087,-2.616281 -0.5558,-3.939882 0.60232,1.495843 2.9404,1.611308 3.69303,0.184366 0.2141,-0.613524 0.036,0.445868 0.0765,0.516806 z" />
            <path d="m 128.78711,69.910156 c 0,6.172526 0,12.345052 0,18.517578 0.35412,0.632664 1.002,0.556132 1.6293,0.529297 2.94232,-0.01358 6.1827,0.269301 8.74313,-1.47731 2.35548,-1.608543 3.00147,-4.644903 3.11609,-7.320184 0.0811,-2.845638 -0.0926,-6.006844 -1.99259,-8.295015 -1.90443,-2.188838 -5.01557,-2.542417 -7.74671,-2.483663 -1.07331,0 -2.14662,0 -3.21992,0 -0.17644,0.176433 -0.35287,0.352865 -0.5293,0.529297 z m 5.16016,3.830078 c 1.27951,-0.07929 2.68807,0.56568 3.03087,1.891991 0.60426,2.025846 0.5559,4.213545 0.21567,6.283457 -0.16854,1.23685 -0.99717,2.465749 -2.32272,2.607756 -0.41291,-0.0422 -1.42027,0.383623 -1.36718,-0.223829 0,-3.519791 0,-7.039583 0,-10.559375 0.14778,0 0.29557,0 0.44336,0 z" />
            <path d="m 149.32812,69.060547 c -1.51099,0.07895 -3.00553,0.371252 -4.45507,0.798828 -0.67047,0.588262 -0.28385,1.530685 -0.38477,2.309766 0.1273,0.541675 -0.27806,1.36118 0.24602,1.695894 0.4458,0.581351 1.02799,0.04661 1.57481,-0.06373 1.45285,-0.417439 3.13993,-0.86222 4.6948,-0.397006 1.2525,0.302589 1.45079,2.290882 0.19921,2.730469 -1.10996,0.478526 -2.40421,0.09463 -3.51407,0.324617 -0.6424,0.350087 -0.43178,1.053507 -0.45858,1.658586 0.0508,0.687176 -0.0993,1.457542 0.0707,2.09532 0.35009,0.642403 1.05351,0.431786 1.65859,0.458586 1.23432,-0.07151 2.86039,0.05103 3.37812,1.394531 0.44054,1.049345 0.095,2.487805 -1.09961,2.835938 -1.54893,0.470129 -3.22691,0.154444 -4.76562,-0.214844 -0.61503,-0.181781 -1.21404,-0.413042 -1.78907,-0.697266 -0.71285,0.240321 -0.86956,0.785267 -0.75195,1.480469 0.0386,0.82038 -0.0774,1.690576 0.0584,2.479597 0.37108,0.722657 1.32258,0.66763 2.00447,0.921907 2.71977,0.579957 5.74737,0.78281 8.30075,-0.507963 1.9787,-0.98814 2.94069,-3.282408 2.776,-5.416004 0.0237,-1.888319 -1.12961,-3.789225 -2.81933,-4.526365 1.85559,-0.838281 2.69836,-3.038943 2.31944,-4.966701 -0.28053,-2.361554 -2.5184,-3.965289 -4.75527,-4.253945 -0.82013,-0.143731 -1.65723,-0.171229 -2.488,-0.140682 z" />
            <animateTransform
                attributeName="transform"
                type="translate"
                dur="1s"
                values="0 12;0 0"
                keySplines=".48,.48,.1,.91"
                calcMode="spline"
                begin="animLoop.begin"/>
            <animate
                attributeName="opacity"
                dur="5s"
                values="0;1;1;1;1"
                begin="animLoop.begin"/>
          </g>
        </mask>
        <mask id="maskSOURCE">
          <g transform="translate(-3.013872,11.698703)"
            style="fill:#fff;stroke:none;font-weight:bold;font-size:64px;font-family:Monospace;white-space:pre;fill:#fff">
            <path d="m 7.827388,11.25268 c -1.2063,0.02706 -2.463018,0.413658 -3.299829,1.320821 -0.826897,0.858039 -1.103207,2.108854 -0.995744,3.268115 0.06731,0.937715 0.4919,1.873189 1.264658,2.434878 1.065128,0.818931 2.380145,1.179441 3.601665,1.689088 0.4445,0.19119 0.81198,0.63817 0.74849,1.14391 0.004,0.41089 -0.3139,0.75926 -0.70532,0.84848 -0.86247,0.20211 -1.77153,-0.002 -2.572233,-0.34308 -0.523237,-0.22733 -1.012938,-0.52543 -1.478166,-0.85426 -0.27664,0.14503 -0.553283,0.29007 -0.829924,0.43511 0,0.84061 0,1.68121 0,2.52181 0.122291,0.15937 0.192509,0.37705 0.347414,0.49991 1.804781,0.88849 3.927419,1.14401 5.882179,0.65196 0.99077,-0.25534 1.92288,-0.86615 2.40141,-1.79111 0.49869,-0.95873 0.58022,-2.0924 0.40517,-3.14566 -0.17296,-1.024428 -0.79464,-1.946853 -1.6575,-2.519623 -1.06936,-0.757282 -2.39628,-0.981334 -3.53911,-1.592667 -0.27204,-0.1217 -0.4813,-0.393512 -0.43843,-0.702953 -0.0211,-0.366916 0.29173,-0.646372 0.62949,-0.714682 1.0542,-0.237633 2.15177,0.107125 3.06304,0.637963 0.17315,0.100251 0.34022,0.210556 0.50432,0.324919 0.27578,-0.14573 0.55156,-0.291457 0.82734,-0.437184 0,-0.79375 0,-1.5875 0,-2.38125 -0.12722,-0.16183 -0.20526,-0.381675 -0.3647,-0.5055 -1.18679,-0.531074 -2.49088,-0.82837 -3.79422,-0.788995 z" />
            <path d="m 17.985948,11.255265 c -1.12764,0.03876 -2.26036,0.491718 -3.0125,1.350084 -0.95671,1.065803 -1.33231,2.51228 -1.48726,3.903887 -0.14687,1.523474 -0.12521,3.078181 0.20235,4.577986 0.2833,1.25466 0.87574,2.5159 1.95877,3.26923 1.08443,0.76105 2.50297,0.90102 3.7751,0.63533 1.09364,-0.22688 2.05694,-0.94176 2.62629,-1.898 0.82765,-1.35559 1.03762,-2.98025 1.07933,-4.53984 0.0202,-1.625965 -0.10323,-3.311367 -0.81286,-4.799867 -0.48826,-1.040943 -1.37017,-1.923648 -2.48269,-2.268615 -0.59309,-0.196688 -1.2245,-0.25546 -1.84653,-0.230195 z m 0.3514,3.246313 c 0.47241,0.008 0.7553,0.458531 0.88201,0.862457 0.31532,1.014783 0.31356,2.093487 0.31174,3.146264 -0.0257,0.900853 -0.0521,1.829913 -0.38192,2.680273 -0.1384,0.37081 -0.47279,0.70787 -0.89555,0.67438 -0.43664,0.0266 -0.75751,-0.34443 -0.89057,-0.72344 -0.34375,-0.94485 -0.34837,-1.968924 -0.3662,-2.962122 0.0182,-0.98552 0.023,-2.001211 0.36215,-2.939233 0.13295,-0.387218 0.45666,-0.770448 0.90289,-0.74168 0.0252,0.001 0.0503,0.0021 0.0755,0.0031 z" />
            <path d="m 23.710658,12.001472 c 0.004,2.723552 -0.009,5.447305 0.007,8.17073 0.0422,1.22052 0.25117,2.51482 1.02575,3.50052 0.72311,0.91974 1.90594,1.33134 3.03969,1.41372 1.24178,0.0896 2.57659,-0.0206 3.64103,-0.72527 0.91785,-0.60137 1.41668,-1.65683 1.61364,-2.70695 0.25053,-1.25856 0.14031,-2.548016 0.16515,-3.821995 0,-1.943584 0,-3.887168 0,-5.830755 -0.17639,-0.176387 -0.35278,-0.352777 -0.52917,-0.529167 -0.81304,0 -1.62608,0 -2.43913,0 -0.17638,0.17639 -0.35277,0.35278 -0.52916,0.529167 -0.004,2.861844 0.008,5.723948 -0.006,8.58563 -0.0158,0.49357 -0.25574,1.04925 -0.76864,1.19511 -0.51556,0.14864 -1.19127,0.0776 -1.49397,-0.42162 -0.33462,-0.55111 -0.19932,-1.22241 -0.22841,-1.832756 0,-2.50879 0,-5.017577 0,-7.526364 -0.17638,-0.176387 -0.35277,-0.352777 -0.52916,-0.529167 -0.81304,0 -1.62609,0 -2.43913,0 -0.17639,0.17639 -0.35278,0.35278 -0.52917,0.529167 z" />
            <path d="m 34.128628,12.001472 c 0,4.114824 0,8.22964 0,12.34447 0.17639,0.17639 0.35278,0.35278 0.52917,0.52916 0.81304,0 1.62608,0 2.43912,0 0.17639,-0.17638 0.35278,-0.35277 0.52917,-0.52916 0,-1.4497 0,-2.8994 0,-4.34909 0.27634,-0.0289 0.57043,0.0288 0.75807,0.25056 0.47101,0.49387 0.67357,1.16555 0.98621,1.75846 0.40869,0.85598 0.81739,1.71197 1.22608,2.56796 0.17949,0.0911 0.33731,0.25722 0.53041,0.30127 0.87533,0 1.75066,0 2.62599,0 0.15761,-0.25562 0.31523,-0.51125 0.47284,-0.76688 -0.81791,-1.61345 -1.61457,-3.23801 -2.44606,-4.844374 -0.10515,-0.187291 -0.21683,-0.371414 -0.34654,-0.542888 0.89287,-0.404797 1.49917,-1.295707 1.65602,-2.250996 0.14742,-0.912328 0.092,-1.874414 -0.23417,-2.743694 -0.31658,-0.862206 -1.04278,-1.537595 -1.904,-1.840836 -1.39975,-0.527595 -2.91975,-0.394412 -4.38484,-0.413129 -0.6361,0 -1.2722,0 -1.9083,0 -0.17639,0.17639 -0.35278,0.35278 -0.52917,0.529167 z m 4.10414,2.579687 c 0.38874,0.0177 0.84808,0.007 1.1436,0.300758 0.25772,0.366649 0.22455,0.853754 0.17312,1.277442 -0.0365,0.300482 -0.2398,0.579298 -0.54784,0.638937 -0.44754,0.125238 -0.91677,0.08089 -1.37556,0.0897 0,-0.768945 0,-1.53789 0,-2.306836 0.20223,0 0.40446,0 0.60668,-1e-6 z" />
            <path d="m 49.817598,11.255265 c -1.27498,0.04194 -2.57401,0.472392 -3.49371,1.383109 -1.10425,1.07146 -1.60592,2.608138 -1.76686,4.105849 -0.15131,1.552589 -0.10231,3.153029 0.36888,4.650469 0.40824,1.29245 1.25635,2.48939 2.48278,3.11419 1.18181,0.6061 2.57051,0.71919 3.8679,0.5081 0.57297,-0.10035 1.13053,-0.28709 1.64831,-0.55219 0.0887,-0.17853 0.25318,-0.3354 0.29507,-0.5273 0,-0.88636 0,-1.77271 0,-2.65907 -0.29404,-0.13143 -0.58807,-0.26286 -0.88211,-0.39429 -0.5852,0.54983 -1.33166,1.02409 -2.16606,0.97906 -0.61577,0.007 -1.22393,-0.31626 -1.52755,-0.85807 -0.41151,-0.70614 -0.51527,-1.539998 -0.55678,-2.342558 -0.006,-0.126474 -0.0109,-0.345046 -0.0101,-0.50808 0.002,-0.313721 0.0115,-0.562255 0.0377,-0.872847 0.0836,-0.823759 0.24603,-1.720437 0.85804,-2.327373 0.61386,-0.570074 1.58399,-0.565359 2.30645,-0.215511 0.39327,0.181973 0.74011,0.449675 1.05821,0.741061 0.29404,-0.131432 0.58807,-0.262861 0.88211,-0.394293 0,-0.903991 0,-1.807985 0,-2.711979 -0.12673,-0.16252 -0.18708,-0.397187 -0.36126,-0.508129 -0.93358,-0.478057 -1.9994,-0.653471 -3.04111,-0.610148 z" />
            <path d="m 54.807468,12.001472 c 0,4.114824 0,8.22964 0,12.34447 0.17639,0.17639 0.35278,0.35278 0.52917,0.52916 2.56315,0 5.1263,0 7.68945,0 0.17639,-0.17638 0.35278,-0.35277 0.52917,-0.52916 0,-0.71658 0,-1.43316 0,-2.14974 -0.17639,-0.17639 -0.35278,-0.35278 -0.52917,-0.52917 -1.57372,0 -3.14744,0 -4.72116,0 0,-0.72485 0,-1.44969 0,-2.174544 1.40836,0 2.81671,0 4.22507,0 0.17639,-0.176388 0.35278,-0.352777 0.52916,-0.529167 0,-0.716579 0,-1.433158 0,-2.14974 -0.17638,-0.176387 -0.35277,-0.352777 -0.52916,-0.529166 -1.40836,0 -2.81671,0 -4.22507,0 0,-0.534678 0,-1.069356 0,-1.604037 1.57372,0 3.14744,0 4.72116,0 0.17639,-0.176387 0.35278,-0.352777 0.52917,-0.529166 0,-0.716579 0,-1.433158 0,-2.14974 -0.17639,-0.176387 -0.35278,-0.352777 -0.52917,-0.529167 -2.56315,0 -5.1263,0 -7.68945,0 -0.17639,0.17639 -0.35278,0.35278 -0.52917,0.529167 z" />
          </g>
        </mask>
        <g id="code3sources" transform="matrix(13.104903,0,0,13.104903,1.5985266e-6,155)">
          <g id="text" style="fill:#1a1a1a;stroke:#5c5c5c;stroke-opacity:0.57"
            transform="translate(-96.991535,-68.538281)">
            <g>
                <path d="m 106.13477,69.056641 c -2.54525,0.02998 -5.09471,1.344615 -6.314345,3.6296 -1.548845,2.80959 -1.6258,6.180647 -1.230581,9.292275 0.371494,2.780085 1.881996,5.652735 4.614396,6.72056 2.38252,0.923565 5.17515,0.827024 7.46373,-0.326029 0.57023,-0.690178 0.19562,-1.654141 0.30273,-2.478516 0,-0.689453 0,-1.378906 0,-2.068359 -0.55403,-0.373965 -1.04887,-0.472639 -1.47844,0.104266 -1.38997,1.233125 -3.89301,1.547639 -5.12553,-0.06192 -1.22874,-1.793305 -1.16737,-4.108338 -1.04029,-6.190451 0.15302,-1.620043 0.69349,-3.641474 2.45926,-4.148284 1.57417,-0.472932 3.19124,0.323516 4.31,1.407719 0.70791,-0.166182 1.05753,-0.56243 0.875,-1.300391 -0.036,-1.079103 0.0716,-2.199504 -0.0531,-3.253081 -0.41167,-0.763943 -1.43021,-0.840308 -2.18516,-1.104731 -0.85143,-0.188927 -1.72662,-0.258437 -2.59765,-0.222656 z" />
                <path d="m 119.57422,69.056641 c -2.18733,0.02132 -4.2207,1.425157 -5.07566,3.42843 -1.27976,2.840649 -1.27541,6.063312 -1.06501,9.114245 0.24328,2.554837 0.98167,5.45135 3.31059,6.888965 2.07614,1.190718 4.90318,1.13498 6.86074,-0.277474 2.22516,-1.704411 2.78619,-4.693393 2.95826,-7.330977 0.128,-3.018239 0.0846,-6.245295 -1.40959,-8.959672 -1.08888,-2.018855 -3.33638,-3.03389 -5.57933,-2.863517 z m 0.60937,4.167968 c 1.15845,0.304096 1.32395,1.721818 1.50561,2.723548 0.11197,0.788329 0.15669,1.584573 0.17994,2.379968 -0.58073,-1.469365 -2.84116,-1.640195 -3.64258,-0.28125 -0.31791,0.675764 -0.0535,-0.755842 -0.0873,-1.026421 0.16005,-1.258026 0.16109,-2.808644 1.24157,-3.666938 0.2436,-0.134154 0.52989,-0.168896 0.80273,-0.128907 z m 1.66016,7.527344 c -0.14122,1.402456 -0.10127,3.030688 -1.10937,4.134766 -0.78137,0.66784 -1.90238,0.0055 -2.10436,-0.896056 -0.45291,-1.258651 -0.50087,-2.616281 -0.5558,-3.939882 0.60232,1.495843 2.9404,1.611308 3.69303,0.184366 0.2141,-0.613524 0.036,0.445868 0.0765,0.516806 z" />
                <path d="m 128.78711,69.910156 c 0,6.172526 0,12.345052 0,18.517578 0.35412,0.632664 1.002,0.556132 1.6293,0.529297 2.94232,-0.01358 6.1827,0.269301 8.74313,-1.47731 2.35548,-1.608543 3.00147,-4.644903 3.11609,-7.320184 0.0811,-2.845638 -0.0926,-6.006844 -1.99259,-8.295015 -1.90443,-2.188838 -5.01557,-2.542417 -7.74671,-2.483663 -1.07331,0 -2.14662,0 -3.21992,0 -0.17644,0.176433 -0.35287,0.352865 -0.5293,0.529297 z m 5.16016,3.830078 c 1.27951,-0.07929 2.68807,0.56568 3.03087,1.891991 0.60426,2.025846 0.5559,4.213545 0.21567,6.283457 -0.16854,1.23685 -0.99717,2.465749 -2.32272,2.607756 -0.41291,-0.0422 -1.42027,0.383623 -1.36718,-0.223829 0,-3.519791 0,-7.039583 0,-10.559375 0.14778,0 0.29557,0 0.44336,0 z" />
                <path d="m 149.32812,69.060547 c -1.51099,0.07895 -3.00553,0.371252 -4.45507,0.798828 -0.67047,0.588262 -0.28385,1.530685 -0.38477,2.309766 0.1273,0.541675 -0.27806,1.36118 0.24602,1.695894 0.4458,0.581351 1.02799,0.04661 1.57481,-0.06373 1.45285,-0.417439 3.13993,-0.86222 4.6948,-0.397006 1.2525,0.302589 1.45079,2.290882 0.19921,2.730469 -1.10996,0.478526 -2.40421,0.09463 -3.51407,0.324617 -0.6424,0.350087 -0.43178,1.053507 -0.45858,1.658586 0.0508,0.687176 -0.0993,1.457542 0.0707,2.09532 0.35009,0.642403 1.05351,0.431786 1.65859,0.458586 1.23432,-0.07151 2.86039,0.05103 3.37812,1.394531 0.44054,1.049345 0.095,2.487805 -1.09961,2.835938 -1.54893,0.470129 -3.22691,0.154444 -4.76562,-0.214844 -0.61503,-0.181781 -1.21404,-0.413042 -1.78907,-0.697266 -0.71285,0.240321 -0.86956,0.785267 -0.75195,1.480469 0.0386,0.82038 -0.0774,1.690576 0.0584,2.479597 0.37108,0.722657 1.32258,0.66763 2.00447,0.921907 2.71977,0.579957 5.74737,0.78281 8.30075,-0.507963 1.9787,-0.98814 2.94069,-3.282408 2.776,-5.416004 0.0237,-1.888319 -1.12961,-3.789225 -2.81933,-4.526365 1.85559,-0.838281 2.69836,-3.038943 2.31944,-4.966701 -0.28053,-2.361554 -2.5184,-3.965289 -4.75527,-4.253945 -0.82013,-0.143731 -1.65723,-0.171229 -2.488,-0.140682 z" />
            
                <animateTransform
                    attributeName="transform"
                    type="translate"
                    dur="1s"
                    values="0 12;0 0"
                    keySplines=".48,.48,.1,.91"
                    calcMode="spline"
                    begin="animLoop.begin"/>
                <animate
                    attributeName="opacity"
                    dur="5s"
                    values="0.5;1;1;1;1"
                    begin="animLoop.begin"/>
            </g>
            <g>
                <path d="m 101.80952,91.485208 c -1.2063,0.02706 -2.463018,0.413658 -3.299829,1.320821 -0.826897,0.858039 -1.103207,2.108854 -0.995744,3.268115 0.06731,0.937715 0.4919,1.873189 1.264658,2.434878 1.065128,0.818931 2.380145,1.179441 3.601665,1.689088 0.4445,0.19119 0.81198,0.63817 0.74849,1.14391 0.004,0.41089 -0.3139,0.75926 -0.70532,0.84848 -0.86247,0.20211 -1.77153,-0.002 -2.572233,-0.34308 -0.523237,-0.22733 -1.012938,-0.52543 -1.478166,-0.85426 -0.27664,0.14503 -0.553283,0.29007 -0.829924,0.43511 0,0.84061 0,1.68121 0,2.52181 0.122291,0.15937 0.192509,0.37705 0.347414,0.49991 1.804781,0.88849 3.927419,1.14401 5.882179,0.65196 0.99077,-0.25534 1.92288,-0.86615 2.40141,-1.79111 0.49869,-0.95873 0.58022,-2.0924 0.40517,-3.14566 -0.17296,-1.024428 -0.79464,-1.946853 -1.6575,-2.519623 -1.06936,-0.757282 -2.39628,-0.981334 -3.53911,-1.592667 -0.27204,-0.1217 -0.4813,-0.393512 -0.43843,-0.702953 -0.0211,-0.366916 0.29173,-0.646372 0.62949,-0.714682 1.0542,-0.237633 2.15177,0.107125 3.06304,0.637963 0.17315,0.100251 0.34022,0.210556 0.50432,0.324919 0.27578,-0.14573 0.55156,-0.291457 0.82734,-0.437184 0,-0.79375 0,-1.5875 0,-2.38125 -0.12722,-0.16183 -0.20526,-0.381675 -0.3647,-0.5055 -1.18679,-0.531074 -2.49088,-0.82837 -3.79422,-0.788995 z" />
                <path d="m 111.96808,91.487793 c -1.12764,0.03876 -2.26036,0.491718 -3.0125,1.350084 -0.95671,1.065803 -1.33231,2.51228 -1.48726,3.903887 -0.14687,1.523474 -0.12521,3.078181 0.20235,4.577986 0.2833,1.25466 0.87574,2.5159 1.95877,3.26923 1.08443,0.76105 2.50297,0.90102 3.7751,0.63533 1.09364,-0.22688 2.05694,-0.94176 2.62629,-1.898 0.82765,-1.35559 1.03762,-2.98025 1.07933,-4.53984 0.0202,-1.625965 -0.10323,-3.311367 -0.81286,-4.799867 -0.48826,-1.040943 -1.37017,-1.923648 -2.48269,-2.268615 -0.59309,-0.196688 -1.2245,-0.25546 -1.84653,-0.230195 z m 0.3514,3.246313 c 0.47241,0.008 0.7553,0.458531 0.88201,0.862457 0.31532,1.014783 0.31356,2.093487 0.31174,3.146264 -0.0257,0.900853 -0.0521,1.829913 -0.38192,2.680273 -0.1384,0.37081 -0.47279,0.70787 -0.89555,0.67438 -0.43664,0.0266 -0.75751,-0.34443 -0.89057,-0.72344 -0.34375,-0.94485 -0.34837,-1.968924 -0.3662,-2.962122 0.0182,-0.98552 0.023,-2.001211 0.36215,-2.939233 0.13295,-0.387218 0.45666,-0.770448 0.90289,-0.74168 0.0252,0.001 0.0503,0.0021 0.0755,0.0031 z" />
                <path d="m 117.69279,92.234 c 0.004,2.723552 -0.009,5.447305 0.007,8.17073 0.0422,1.22052 0.25117,2.51482 1.02575,3.50052 0.72311,0.91974 1.90594,1.33134 3.03969,1.41372 1.24178,0.0896 2.57659,-0.0206 3.64103,-0.72527 0.91785,-0.60137 1.41668,-1.65683 1.61364,-2.70695 0.25053,-1.25856 0.14031,-2.548016 0.16515,-3.821995 0,-1.943584 0,-3.887168 0,-5.830755 -0.17639,-0.176387 -0.35278,-0.352777 -0.52917,-0.529167 -0.81304,0 -1.62608,0 -2.43913,0 -0.17638,0.17639 -0.35277,0.35278 -0.52916,0.529167 -0.004,2.861844 0.008,5.723948 -0.006,8.58563 -0.0158,0.49357 -0.25574,1.04925 -0.76864,1.19511 -0.51556,0.14864 -1.19127,0.0776 -1.49397,-0.42162 -0.33462,-0.55111 -0.19932,-1.22241 -0.22841,-1.832756 0,-2.50879 0,-5.017577 0,-7.526364 -0.17638,-0.176387 -0.35277,-0.352777 -0.52916,-0.529167 -0.81304,0 -1.62609,0 -2.43913,0 -0.17639,0.17639 -0.35278,0.35278 -0.52917,0.529167 z" />
                <path d="m 128.11076,92.234 c 0,4.114824 0,8.22964 0,12.34447 0.17639,0.17639 0.35278,0.35278 0.52917,0.52916 0.81304,0 1.62608,0 2.43912,0 0.17639,-0.17638 0.35278,-0.35277 0.52917,-0.52916 0,-1.4497 0,-2.8994 0,-4.34909 0.27634,-0.0289 0.57043,0.0288 0.75807,0.25056 0.47101,0.49387 0.67357,1.16555 0.98621,1.75846 0.40869,0.85598 0.81739,1.71197 1.22608,2.56796 0.17949,0.0911 0.33731,0.25722 0.53041,0.30127 0.87533,0 1.75066,0 2.62599,0 0.15761,-0.25562 0.31523,-0.51125 0.47284,-0.76688 -0.81791,-1.61345 -1.61457,-3.23801 -2.44606,-4.844374 -0.10515,-0.187291 -0.21683,-0.371414 -0.34654,-0.542888 0.89287,-0.404797 1.49917,-1.295707 1.65602,-2.250996 0.14742,-0.912328 0.092,-1.874414 -0.23417,-2.743694 -0.31658,-0.862206 -1.04278,-1.537595 -1.904,-1.840836 -1.39975,-0.527595 -2.91975,-0.394412 -4.38484,-0.413129 -0.6361,0 -1.2722,0 -1.9083,0 -0.17639,0.17639 -0.35278,0.35278 -0.52917,0.529167 z m 4.10414,2.579687 c 0.38874,0.0177 0.84808,0.007 1.1436,0.300758 0.25772,0.366649 0.22455,0.853754 0.17312,1.277442 -0.0365,0.300482 -0.2398,0.579298 -0.54784,0.638937 -0.44754,0.125238 -0.91677,0.08089 -1.37556,0.0897 0,-0.768945 0,-1.53789 0,-2.306836 0.20223,0 0.40446,0 0.60668,-10e-7 z" />
                <path d="m 143.79973,91.487793 c -1.27498,0.04194 -2.57401,0.472392 -3.49371,1.383109 -1.10425,1.07146 -1.60592,2.608138 -1.76686,4.105849 -0.15131,1.552589 -0.10231,3.153029 0.36888,4.650469 0.40824,1.29245 1.25635,2.48939 2.48278,3.11419 1.18181,0.6061 2.57051,0.71919 3.8679,0.5081 0.57297,-0.10035 1.13053,-0.28709 1.64831,-0.55219 0.0887,-0.17853 0.25318,-0.3354 0.29507,-0.5273 0,-0.88636 0,-1.77271 0,-2.65907 -0.29404,-0.13143 -0.58807,-0.26286 -0.88211,-0.39429 -0.5852,0.54983 -1.33166,1.02409 -2.16606,0.97906 -0.61577,0.007 -1.22393,-0.31626 -1.52755,-0.85807 -0.41151,-0.70614 -0.51527,-1.539998 -0.55678,-2.342558 -0.006,-0.126474 -0.0109,-0.345046 -0.0101,-0.50808 0.002,-0.313721 0.0115,-0.562255 0.0377,-0.872847 0.0836,-0.823759 0.24603,-1.720437 0.85804,-2.327373 0.61386,-0.570074 1.58399,-0.565359 2.30645,-0.215511 0.39327,0.181973 0.74011,0.449675 1.05821,0.741061 0.29404,-0.131432 0.58807,-0.262861 0.88211,-0.394293 0,-0.903991 0,-1.807985 0,-2.711979 -0.12673,-0.16252 -0.18708,-0.397187 -0.36126,-0.508129 -0.93358,-0.478057 -1.9994,-0.653471 -3.04111,-0.610148 z" />
                <path d="m 148.7896,92.234 c 0,4.114824 0,8.22964 0,12.34447 0.17639,0.17639 0.35278,0.35278 0.52917,0.52916 2.56315,0 5.1263,0 7.68945,0 0.17639,-0.17638 0.35278,-0.35277 0.52917,-0.52916 0,-0.71658 0,-1.43316 0,-2.14974 -0.17639,-0.17639 -0.35278,-0.35278 -0.52917,-0.52917 -1.57372,0 -3.14744,0 -4.72116,0 0,-0.72485 0,-1.44969 0,-2.174544 1.40836,0 2.81671,0 4.22507,0 0.17639,-0.176388 0.35278,-0.352777 0.52916,-0.529167 0,-0.716579 0,-1.433158 0,-2.14974 -0.17638,-0.176387 -0.35277,-0.352777 -0.52916,-0.529166 -1.40836,0 -2.81671,0 -4.22507,0 0,-0.534678 0,-1.069356 0,-1.604037 1.57372,0 3.14744,0 4.72116,0 0.17639,-0.176387 0.35278,-0.352777 0.52917,-0.529166 0,-0.716579 0,-1.433158 0,-2.14974 -0.17639,-0.176387 -0.35278,-0.352777 -0.52917,-0.529167 -2.56315,0 -5.1263,0 -7.68945,0 -0.17639,0.17639 -0.35278,0.35278 -0.52917,0.529167 z" />
            </g>
        </g>
          <g id="colorStripes" mask="url(#maskCOD3)" style="opacity:0.6;" transform="translate(-96.991535,-68.538281)">
            <g>
                <path style="fill:#0f0;" d="m 96.488281,86.765625 c -0.777214,0.118293 -0.619748,1.380869 0.164063,1.306641 3.784206,-0.01171 7.570806,0.02343 11.353516,-0.01758 0.77118,-0.124649 0.60698,-1.378072 -0.17188,-1.304688 -3.78162,0.01041 -7.56532,-0.02083 -11.345699,0.01563 z" /><path style="fill:#0ff;" d="m 110.46289,86.798828 c -0.77707,0.119179 -0.61938,1.379981 0.16406,1.306641 3.78362,-0.01041 7.56914,0.02083 11.35157,-0.01563 0.77289,-0.124871 0.60954,-1.380627 -0.16993,-1.306641 -3.78162,0.01041 -7.56532,-0.02083 -11.3457,0.01563 z" /><path style="fill:#00f;" d="m 124.22266,86.890625 c -0.77108,0.115489 -0.6293,1.364774 0.14843,1.308594 3.78553,-0.01049 7.57326,0.02092 11.35743,-0.01563 0.82978,-0.133983 0.57476,-1.469668 -0.24844,-1.308594 -3.75217,0.01048 -7.50664,-0.02092 -11.25742,0.01563 z" /><path style="fill:#f0f;" d="m 138.1543,86.802734 c -0.77136,0.114511 -0.62963,1.365754 0.14843,1.308594 3.78553,-0.01048 7.57326,0.02092 11.35743,-0.01563 0.82979,-0.133983 0.57476,-1.469668 -0.24844,-1.308594 -3.75217,0.01049 -7.50664,-0.02092 -11.25742,0.01563 z" /><path style="fill:#f00;" d="m 152.28125,86.767578 c -0.77874,0.116094 -0.62345,1.381978 0.16211,1.306641 3.78361,-0.01041 7.56914,0.02083 11.35156,-0.01563 0.82248,-0.141411 0.56281,-1.4685 -0.25625,-1.306641 -3.75217,0.01049 -7.50663,-0.02092 -11.25742,0.01563 z" />
                <animateTransform
                    attributeName="transform"
                    type="translate"
                    dur="5s"
                    from="0 0"
                    to="-5 0"
                    begin="animLoop.begin"/>
            </g>
            <g>
                <path style="fill:#00f;" d="m 102.25391,83.822266 c -0.76969,0.12886 -0.60805,1.380657 0.17187,1.30664 3.78421,-0.01171 7.5708,0.02343 11.35352,-0.01758 0.77102,-0.125519 0.60663,-1.377167 -0.17188,-1.304687 -3.78424,0.01041 -7.57046,-0.02083 -11.35351,0.01563 z" /><path style="fill:#f0f;" d="m 116.34961,83.914062 c -0.83026,0.130058 -0.57918,1.46866 0.24453,1.308594 3.75285,-0.01048 7.5079,0.02092 11.25938,-0.01563 0.82835,-0.133235 0.57426,-1.470667 -0.24844,-1.308593 -3.75151,0.01048 -7.50538,-0.02092 -11.25547,0.01562 z" /><path style="fill:#f00;" d="m 130.31055,83.867188 c -0.77722,0.119471 -0.61923,1.378562 0.16406,1.30664 3.78427,-0.01041 7.57043,0.02083 11.35351,-0.01563 0.77124,-0.128641 0.60757,-1.380113 -0.17187,-1.306641 -3.78163,0.01041 -7.56532,-0.02083 -11.3457,0.01563 z" /><path style="fill:#f00;" d="m 88.345703,83.828125 c -0.821524,0.141064 -0.563813,1.466352 0.254297,1.306641 3.752848,-0.01048 7.507895,0.02092 11.259375,-0.01563 0.776265,-0.115664 0.622595,-1.382965 -0.162109,-1.306641 -3.783588,0.01041 -7.569195,-0.02082 -11.351563,0.01563 z" /><path style="fill:#ff0;" d="m 144.50195,83.917969 c -0.77127,0.128636 -0.60751,1.380103 0.17188,1.30664 3.78165,-0.01041 7.56528,0.02083 11.3457,-0.01563 0.77717,-0.119478 0.61928,-1.378572 -0.16406,-1.30664 -3.78425,0.01041 -7.57046,-0.02083 -11.35352,0.01563 z" />
                <animateTransform
                    attributeName="transform"
                    type="translate"
                    dur="5s"
                    from="0 0"
                    to="5 0"
                    begin="animLoop.begin"/>
            </g>
            <g>
                <path style="fill:#f00;" d="m 108.14844,80.828125 c -0.77801,0.118559 -0.61991,1.379353 0.16406,1.306641 3.78165,-0.01041 7.56529,0.02083 11.3457,-0.01563 0.77732,-0.1186 0.61964,-1.379468 -0.16406,-1.306641 -3.78163,0.01041 -7.56532,-0.02083 -11.3457,0.01563 z" /><path style="fill:#f0f;" d="m 94.128906,80.744141 c -0.831258,0.130532 -0.578424,1.470999 0.246485,1.308593 3.752197,-0.01049 7.506589,0.02093 11.257419,-0.01563 0.77088,-0.115361 0.62979,-1.365505 -0.14843,-1.308593 -3.78486,0.01048 -7.572021,-0.02092 -11.355474,0.01563 z" /><path style="fill:#ff0;" d="m 122.62891,81.044922 c -0.7729,0.124871 -0.60955,1.380626 0.16992,1.30664 3.78165,-0.01041 7.56528,0.02083 11.3457,-0.01562 0.77505,-0.118576 0.61889,-1.380979 -0.16406,-1.306641 -3.78359,0.01041 -7.56918,-0.02083 -11.35156,0.01563 z" /><path style="fill:#0f0;" d="m 136.66992,80.980469 c -0.77842,0.114857 -0.62294,1.382431 0.16211,1.30664 3.78421,-0.01171 7.5708,0.02343 11.35352,-0.01758 0.82317,-0.14158 0.55794,-1.465184 -0.25821,-1.304687 -3.75216,0.01048 -7.50663,-0.02093 -11.25742,0.01563 z" /><path style="fill:#0ff;" d="m 150.60156,80.892578 c -0.77842,0.114858 -0.62294,1.382431 0.16211,1.306641 3.78421,-0.01171 7.5708,0.02343 11.35352,-0.01758 0.82293,-0.142443 0.55766,-1.464411 -0.25821,-1.304688 -3.75216,0.01049 -7.50663,-0.02092 -11.25742,0.01563 z" />
                <animateTransform
                    attributeName="transform"
                    type="translate"
                    dur="5s"
                    from="0 0"
                    to="-5 0"
                    begin="animLoop.begin"/>
            </g>
            <g>
                <path style="fill:#ff0;" d="m 100.26562,77.851562 c -0.771243,0.127474 -0.609325,1.378706 0.16993,1.306641 3.78426,-0.01041 7.57044,0.02082 11.35351,-0.01563 0.77012,-0.12833 0.60853,-1.377974 -0.16992,-1.30664 -3.78424,0.01041 -7.57048,-0.02082 -11.35352,0.01562 z" /><path style="fill:#0f0;" d="m 114.24023,77.802734 c -0.77832,0.117524 -0.62325,1.380826 0.16211,1.306641 3.78421,-0.01171 7.57081,0.02343 11.35352,-0.01758 0.82293,-0.142442 0.55766,-1.464411 -0.2582,-1.304688 -3.75217,0.01049 -7.50664,-0.02092 -11.25743,0.01563 z" /><path style="fill:#0ff;" d="m 128.79297,78.003906 c -0.77627,0.115664 -0.6226,1.382965 0.16211,1.306641 3.78361,-0.01041 7.56916,0.02083 11.35156,-0.01563 0.82152,-0.141064 0.56381,-1.466352 -0.2543,-1.306641 -3.75282,0.01048 -7.50793,-0.02092 -11.25937,0.01563 z" /><path style="fill:#00f;" d="m 142.75,77.958984 c -0.82187,0.141669 -0.55933,1.466711 0.2582,1.304688 3.7522,-0.01049 7.5066,0.02093 11.25742,-0.01563 0.77923,-0.115193 0.62246,-1.381637 -0.1621,-1.306641 -3.78418,0.01171 -7.57085,-0.02343 -11.35352,0.01758 z" /><path style="opacity:1;fill:#f00;" d="m 86.738363,77.908447 c -0.77124,0.128641 -0.60756,1.380113 0.17188,1.30664 3.78165,-0.01041 7.56528,0.02083 11.345698,-0.01563 0.77594,-0.118851 0.61871,-1.379284 -0.16406,-1.30664 -3.784248,0.01041 -7.570468,-0.02083 -11.353518,0.01563 z" />
                <animateTransform
                    attributeName="transform"
                    type="translate"
                    dur="5s"
                    from="0 0"
                    to="5 0"
                    begin="animLoop.begin"/>
            </g>
            <g style="opacity:1;">
                <path style="fill:#0ff;" d="m 106.36719,74.826172 c -0.78002,0.110125 -0.62735,1.382709 0.1582,1.30664 3.78361,-0.01041 7.56916,0.02083 11.35156,-0.01562 0.8225,-0.140444 0.5644,-1.46688 -0.25429,-1.306641 -3.75151,0.01048 -7.50538,-0.02092 -11.25547,0.01563 z" /><path style="fill:#0f0;" d="m 92.503906,74.923828 c -0.769469,0.124544 -0.60565,1.378075 0.171875,1.304688 3.784269,-0.01041 7.570429,0.02083 11.353519,-0.01563 0.76969,-0.128861 0.60804,-1.380658 -0.17188,-1.306641 -3.78417,0.01171 -7.570847,-0.02343 -11.353514,0.01758 z" /><path style="fill:#00f;" d="m 120.97266,74.9375 c -0.77015,0.128325 -0.60848,1.377965 0.16992,1.306641 3.7823,-0.01041 7.56659,0.02083 11.34765,-0.01563 0.77591,-0.118857 0.61876,-1.379295 -0.16406,-1.306641 -3.78424,0.01041 -7.57048,-0.02082 -11.35351,0.01563 z" /><path style="fill:#f0f;" d="m 134.87695,74.980469 c -0.82185,0.14128 -0.56492,1.466706 0.2543,1.30664 3.75154,-0.01048 7.50533,0.02092 11.25547,-0.01563 0.77913,-0.110627 0.6269,-1.382205 -0.1582,-1.30664 -3.78359,0.01041 -7.5692,-0.02082 -11.35157,0.01563 z" /><path style="fill:#f00;" d="m 148.93945,75.138672 c -0.77178,0.124563 -0.6105,1.378483 0.16797,1.30664 3.78231,-0.01041 7.56659,0.02083 11.34766,-0.01562 0.77505,-0.118576 0.61889,-1.380979 -0.16406,-1.306641 -3.78359,0.01041 -7.5692,-0.02082 -11.35157,0.01563 z" />
                <animateTransform
                    attributeName="transform"
                    type="translate"
                    dur="5s"
                    from="0 0"
                    to="-5 0"
                    begin="animLoop.begin"/>
            </g>
            <g style="opacity:1;">
                <path style="fill:#0f0;" d="m 86.753059,71.928511 c -0.77017,0.128211 -0.60862,1.378101 0.16992,1.30664 3.78427,-0.01041 7.57045,0.02082 11.35352,-0.01562 0.77015,-0.128326 0.60848,-1.377965 -0.16992,-1.306641 -3.78425,0.01041 -7.57048,-0.02082 -11.35352,0.01563 z" /><path style="fill:#f0f;" d="m 114.18945,71.992188 c -0.83026,0.130057 -0.57917,1.468659 0.24453,1.308593 3.75154,-0.01048 7.50534,0.02092 11.25547,-0.01563 0.83123,-0.129457 0.57977,-1.469181 -0.24453,-1.308594 -3.75151,0.01048 -7.50538,-0.02092 -11.25547,0.01563 z" /><path style="fill:#00f;" d="m 100.24609,71.849609 c -0.778422,0.114858 -0.622941,1.382432 0.16211,1.306641 3.78421,-0.01171 7.57081,0.02343 11.35352,-0.01758 0.82317,-0.14158 0.55794,-1.465184 -0.2582,-1.304688 -3.75217,0.01049 -7.50664,-0.02092 -11.25743,0.01563 z" /><path style="fill:#f00;" d="m 128.79492,72.103516 c -0.77124,0.128641 -0.60756,1.380113 0.17188,1.30664 3.78165,-0.01041 7.56528,0.02083 11.3457,-0.01563 0.77594,-0.118851 0.61871,-1.379284 -0.16406,-1.30664 -3.78425,0.01041 -7.57047,-0.02083 -11.35352,0.01563 z" /><path style="opacity:1;fill:#ff0;" d="m 142.69727,72.146484 c -0.77016,0.128325 -0.60848,1.377965 0.16992,1.306641 3.78426,-0.01041 7.57044,0.02082 11.35351,-0.01563 0.77018,-0.128211 0.60862,-1.378101 -0.16992,-1.306641 -3.78424,0.01041 -7.57048,-0.02082 -11.35351,0.01563 z" />
                <animateTransform
                    attributeName="transform"
                    type="translate"
                    dur="5s"
                    from="0 0"
                    to="5 0"
                    begin="animLoop.begin"/>
            </g>
            <g style="opacity:1;">
                <path style="fill:#f0f;" d="m 92.361328,69.205078 c -0.775935,0.118852 -0.618709,1.379284 0.164063,1.306641 3.784266,-0.01041 7.570439,0.02082 11.353519,-0.01563 0.77011,-0.128331 0.60852,-1.377975 -0.16993,-1.306641 -3.782275,0.01041 -7.566622,-0.02083 -11.347652,0.01563 z" /><path style="fill:#f00;" d="m 106.35742,69.205078 c -0.8225,0.140443 -0.5644,1.466879 0.2543,1.306641 3.75154,-0.01048 7.50533,0.02092 11.25547,-0.01563 0.78002,-0.110126 0.62734,-1.38271 -0.15821,-1.306641 -3.78358,0.01041 -7.56919,-0.02082 -11.35156,0.01563 z" /><path style="opacity:1;fill:#ff0;" d="m 120.97266,69.314453 c -0.76857,0.128547 -0.60901,1.378521 0.16992,1.306641 3.78486,-0.01171 7.5721,0.02343 11.35547,-0.01758 0.76947,-0.124545 0.60565,-1.378076 -0.17188,-1.304688 -3.78424,0.01041 -7.57048,-0.02082 -11.35351,0.01563 z" /><path style="opacity:1;fill:#0f0;" d="m 134.875,69.357422 c -0.77017,0.128211 -0.60862,1.378101 0.16992,1.30664 3.78427,-0.01041 7.57045,0.02082 11.35352,-0.01562 0.77015,-0.128326 0.60848,-1.377965 -0.16992,-1.306641 -3.78425,0.01041 -7.57048,-0.02082 -11.35352,0.01563 z" /><path style="opacity:1;fill:#0ff;" d="m 149.05078,69.431641 c -0.77505,0.118117 -0.61895,1.382372 0.16406,1.30664 3.78362,-0.01041 7.56916,0.02083 11.35157,-0.01563 0.77141,-0.122744 0.61087,-1.379199 -0.16797,-1.30664 -3.78228,0.01041 -7.56663,-0.02083 -11.34766,0.01563 z" />
                <animateTransform
                    attributeName="transform"
                    type="translate"
                    dur="5s"
                    from="0 0"
                    to="-5 0"
                    begin="animLoop.begin"/>
            </g>
          </g>
          <path
            d="M 44.298139,30.123718 42.187968,28.90511 v 0.869295 H 28.979539 l 2.100092,-2.218764 c 0.178718,-0.14325 0.41257,-0.243755 0.653121,-0.249321 0.973124,0 3.973766,-2.55e-4 4.186484,-6.75e-4 0.14419,0.410799 0.531496,0.707311 0.991933,0.707311 0.582482,0 1.055191,-0.472665 1.055191,-1.05536 0,-0.582946 -0.472667,-1.055444 -1.055191,-1.055444 -0.460437,0 -0.847747,0.296345 -0.991933,0.706808 l -4.165819,-2.97e-4 c -0.472415,0 -0.967432,0.259191 -1.282501,0.563042 0.0086,-0.009 0.01755,-0.01859 -5.06e-4,1.69e-4 -0.0067,0.0075 -2.228128,2.353801 -2.228128,2.353801 -0.178342,0.143041 -0.412064,0.242911 -0.652446,0.248647 h -2.956434 c -0.161736,-0.806039 -0.873515,-1.413319 -1.727333,-1.413319 -0.973462,0 -1.762546,0.789086 -1.762546,1.762252 0,0.973462 0.789084,1.762587 1.762546,1.762587 0.853987,0 1.56577,-0.607786 1.7275,-1.414499 h 2.935055 c 0.0031,0 0.0061,1.7e-4 0.0092,0 h 2.65141 c 0.239918,0.0061 0.473341,0.106112 0.651519,0.249324 0,0 2.220957,2.346125 2.227831,2.353716 0.01776,0.0188 0.009,0.009 1.69e-4,1.69e-4 0.315069,0.303808 0.810298,0.56283 1.282796,0.56283 l 4.102561,-3.8e-4 v 0.707524 h 2.110722 v -2.110509 h -2.11072 v 0.706596 c 0,0 -2.865185,-8.02e-4 -4.12314,-8.02e-4 -0.240593,-0.0054 -0.474691,-0.105902 -0.653332,-0.249154 l -2.100557,-2.219186 h 10.570811 v 0.870687 z"
            style="fill:#3f3f3f;fill-opacity:0.8;stroke-width:0.0421721" mask="url(#maskSOURCE)" />
        </g>
    </g>

    <rect>
        <animate id="animLoop" begin="0;animLoop.end" dur="18s"
            attributeName="visibility" from="hide" to="hide"/>
    </rect>
</svg>